HIERARCHY
ROOT root     
{
	OFFSET 0.0000 0.0000 0.0000
	CHANNELS 6 Xposition Yposition Zposition Zrotation Yrotation Xrotation
	JOINT pelvis   
	{
		OFFSET 0.0000 0.0000 0.0000
		CHANNELS 3 Zrotation Yrotation Xrotation
		JOINT thorax   
		{
			OFFSET 0.0000 23.0750 -5.0000
			CHANNELS 3 Zrotation Yrotation Xrotation
			JOINT rclavicle
			{
				OFFSET 0.0000 28.0009 0.0000
				CHANNELS 3 Zrotation Yrotation Xrotation
				JOINT rhumerus 
				{
					OFFSET -18.5725 5.5939 0.0000
					CHANNELS 3 Zrotation Yrotation Xrotation
					JOINT rradius  
					{
						OFFSET -24.8459 0.0000 0.0000
						CHANNELS 3 Zrotation Yrotation Xrotation
						JOINT rhand    
						{
							OFFSET -24.5477 0.0000 0.0000
							CHANNELS 3 Zrotation Yrotation Xrotation
							End Site
							{
								OFFSET -8.1826 0.0000 0.0000
							}
						}
					}
				}
			}
			JOINT lclavicle
			{
				OFFSET 0.0000 28.0009 0.0000
				CHANNELS 3 Zrotation Yrotation Xrotation
				JOINT lhumerus 
				{
					OFFSET 18.5725 5.5939 0.0000
					CHANNELS 3 Zrotation Yrotation Xrotation
					JOINT lradius  
					{
						OFFSET 24.8459 0.0000 0.0000
						CHANNELS 3 Zrotation Yrotation Xrotation
						JOINT lhand    
						{
							OFFSET 24.5477 0.0000 0.0000
							CHANNELS 3 Zrotation Yrotation Xrotation
							End Site
							{
								OFFSET 8.1826 0.0000 0.0000
							}
						}
					}
				}
			}
			JOINT head     
			{
				OFFSET 0.0000 35.2030 0.0000
				CHANNELS 3 Zrotation Yrotation Xrotation
				End Site
				{
					OFFSET 0.0000 11.7343 0.0000
				}
			}
		}
		JOINT rfemur   
		{
			OFFSET -8.2817 0.0000 0.0000
			CHANNELS 3 Zrotation Yrotation Xrotation
			JOINT rtibia   
			{
				OFFSET 0.0000 -43.3627 0.0000
				CHANNELS 3 Zrotation Yrotation Xrotation
				JOINT rfoot    
				{
					OFFSET 0.0000 -38.2947 0.0000
					CHANNELS 3 Zrotation Yrotation Xrotation
					JOINT rtoes    
					{
						OFFSET 0.0000 0.0000 16.6054
						CHANNELS 3 Zrotation Yrotation Xrotation
						End Site
						{
							OFFSET 0.0000 0.0000 5.5351
						}
					}
				}
			}
		}
		JOINT lfemur   
		{
			OFFSET 8.2817 0.0000 0.0000
			CHANNELS 3 Zrotation Yrotation Xrotation
			JOINT ltibia   
			{
				OFFSET 0.0000 -43.3627 0.0000
				CHANNELS 3 Zrotation Yrotation Xrotation
				JOINT lfoot    
				{
					OFFSET 0.0000 -38.2947 0.0000
					CHANNELS 3 Zrotation Yrotation Xrotation
					JOINT ltoes    
					{
						OFFSET 0.0000 0.0000 16.6054
						CHANNELS 3 Zrotation Yrotation Xrotation
						End Site
						{
							OFFSET 0.0000 0.0000 5.5351
						}
					}
				}
			}
		}
	}
}
MOTION
Frames: 23
Frame Time: .0333333
101.2 87.491 17.438 -12.8212 -83.704 37.2127 0 -0 0 7.84613 -15.0932 -11.2254 26.4902 -12.61 1.75691e-05 45.3539 -3.19853 -15.1101 -1.59972e-06 78.0339 -1.29621e-06 -13.3837 7.0185 -0.824474 -20.7764 11.0928 1.84551e-05 -50.2694 -24.3069 27.5326 1.16119e-06 -80.3472 -1.37539e-06 11.7849 -5.76495 -0.595508 10.3334 0.478097 -9.24748 0.416396 -4.88645 -40.6482 -0 -0 39.4749 6.64187e-06 -10.7711 2.21028 -0.420406 -1.95782e-06 -25.7039 0.2555 -2.75245 -7.40223 -0 -0 13.1252 2.51177e-08 -0.0147002 9.85578 -0.00250002 -1.71051e-08 -54.324 
100.05 87.5 17.422 -12.042 -83.7586 36.68 0 -0 0 8.31888 -15.4842 -11.4711 26.4873 -12.6941 -3.94037e-05 45.944 -3.72591 -16.0207 -0 77.6841 -0 -14.02 7.08268 -0.872018 -20.3921 11.2298 -7.93261e-05 -49.7962 -25.1957 27.6456 0 -82.6949 0 11.4995 -5.75571 -0.579991 9.6833 0.954501 -9.47137 0.374731 -4.59458 -41.7048 -0 -0 38 8.63208e-06 -10.3182 2.25283 -0.410091 7.95265e-08 -26.0033 0.261405 -2.68955 -6.86554 -0 -0 12.7656 6.5031e-07 -0.252695 11.0725 -0.0485001 -3.12319e-07 -56.121 
98.891 87.499 17.405 -11.2693 -83.81 36.174 0 -0 0 8.81752 -15.8688 -11.749 26.4816 -12.7744 6.87586e-05 46.503 -4.23268 -16.8912 -1.71301e-06 77.2829 -2.14256e-06 -14.6493 7.1164 -0.915913 -20.0605 11.3698 4.04978e-05 -49.2666 -26.0086 27.5986 0 -85.0265 0 11.2912 -5.73695 -0.567609 9.00186 1.43209 -9.73809 0.391816 -4.36765 -42.7231 -0 -0 36.4342 4.47361e-06 -9.78436 2.34418 -0.404108 -1.61604e-06 -26.9904 0.264598 -2.62737 -6.37649 -0 -0 12.4668 -1.24187e-06 -0.486805 12.3046 -0.103701 1.71395e-07 -58.0727 
97.711 87.488 17.383 -10.5856 -83.8547 35.767 0 -0 0 9.35704 -16.2405 -12.0522 26.4695 -12.8534 -9.69692e-05 47.0222 -4.71767 -17.7235 -1.46806e-06 76.8286 -1.16419e-06 -15.2582 7.11013 -0.953511 -19.7846 11.5031 6.11186e-05 -48.6923 -26.7356 27.4106 -5.75811e-06 -87.3345 5.49661e-06 11.1618 -5.71819 -0.559208 8.28682 1.90451 -10.0489 0.493275 -4.20658 -43.6778 -0 -0 34.7551 -2.87877e-06 -9.18627 2.51817 -0.407102 1.37657e-06 -28.733 0.279703 -2.55935 -5.92691 -0 -0 12.2366 -6.24439e-07 -0.722999 13.5408 -0.1693 -1.64579e-06 -60.1251 
96.508 87.464 17.356 -10.0108 -83.8889 35.4595 0 -0 0 9.93281 -16.6013 -12.3571 26.4562 -12.948 0.00013067 47.4957 -5.15226 -18.508 -1.00272e-06 76.3073 -7.87745e-07 -15.8366 7.05741 -0.98279 -19.574 11.652 -0.000110198 -48.0715 -27.4191 27.1188 0.000122912 -89.666 -0.000122839 11.1122 -5.70291 -0.555207 7.54117 2.36659 -10.4075 0.695209 -4.1164 -44.5382 -0 -0 32.9589 7.88181e-06 -8.53282 2.79927 -0.419807 7.6483e-07 -31.1412 0.310491 -2.48457 -5.49339 -0 -0 12.0681 -7.88238e-06 -0.958994 14.7698 -0.244496 -3.06956e-06 -62.1882 
95.278 87.424 17.323 -9.56943 -83.904 35.2645 0 -0 0 10.5379 -16.9488 -12.6534 26.4404 -13.0482 8.6347e-05 47.9277 -5.55434 -19.2583 -2.26775e-06 75.723 -2.42522e-06 -16.368 6.94994 -1.00073 -19.4084 11.7857 -2.00408e-06 -47.4283 -28.0197 26.7255 180 -88.1616 180 11.1296 -5.70147 -0.555989 6.76844 2.81146 -10.8053 1.0016 -4.08814 -45.2744 -0 -0 31.044 3.29538e-06 -7.84213 3.21396 -0.442393 1.26853e-07 -34.0356 0.358497 -2.40266 -5.05454 -0 -0 11.9531 -1.52061e-06 -1.1875 15.9878 -0.327095 -1.21123e-06 -64.2065 
94.016 87.362 17.285 -9.15585 -83.912 35.0595 0 -0 0 11.1494 -17.2876 -12.9267 26.4217 -13.1639 0.000160631 48.3196 -5.91484 -19.9696 -1.42825e-06 75.0735 -1.8588e-06 -16.8373 6.78809 -1.00576 -19.2821 11.9168 1.03003e-05 -46.7697 -28.5537 26.26 180 -85.9946 -180 11.2016 -5.71675 -0.561103 5.97661 3.23385 -11.2359 1.40279 -4.11762 -45.8694 -0 -0 29.0412 1.47909e-06 -7.12587 3.77169 -0.471201 -1.18809e-06 -37.1135 0.414002 -2.31717 -4.58667 -0 -0 11.8804 1.59333e-05 -1.39734 17.1835 -0.412903 -4.65482e-06 -66.0788 
92.718 87.274 17.237 -8.91881 -83.9038 34.9796 0 -0 0 11.7738 -17.6087 -13.1664 26.3938 -13.2721 3.70996e-05 48.6883 -6.26665 -20.6661 -0 74.3761 -0 -17.2365 6.55777 -0.995002 -19.1688 12.0036 7.18606e-05 -46.1242 -28.9611 25.7185 180 -83.8546 180 11.3072 -5.75641 -0.57031 5.16186 3.62926 -11.6853 1.88628 -4.15867 -46.2925 -0 -0 26.9738 3.54734e-06 -6.42982 4.49698 -0.506296 -3.79241e-06 -40.1623 0.492699 -2.19177 -4.06909 -0 -0 11.8492 5.6911e-06 -1.60785 18.3612 -0.50661 -3.77694e-07 -67.8766 
91.383 87.155 17.188 -8.50366 -83.8998 34.6639 0 -0 0 12.3464 -17.9284 -13.3628 26.371 -13.3888 8.48104e-06 49.0297 -6.59426 -21.3334 -1.21179e-06 73.6189 -9.06828e-07 -17.5604 6.27504 -0.970192 -19.062 12.0776 -3.67171e-05 -45.4908 -29.2885 25.1405 180 -81.7709 -180 11.4298 -5.81586 -0.582503 4.34311 3.99425 -12.1451 2.4057 -4.23094 -46.5666 -0 -0 24.9517 2.29622e-06 -5.74468 5.3481 -0.537204 -4.51571e-06 -42.8109 0.550098 -2.06515 -3.47971 -0 -0 11.8366 1.11441e-05 -1.78076 19.494 -0.594396 3.05753e-06 -69.3504 
90.013 86.999 17.137 -7.83476 -83.9043 34.0389 0 -0 0 12.8494 -18.2437 -13.5225 26.3522 -13.5138 -0.000142513 49.3499 -6.90289 -21.9706 -0 72.8051 -0 -17.8152 5.94316 -0.93234 -18.9553 12.1389 0.000186748 -44.8697 -29.5403 24.5407 180 -79.7407 180 11.5522 -5.89413 -0.596692 3.52281 4.32726 -12.6016 2.92156 -4.31023 -46.7173 -0 -0 23.0716 -7.98544e-06 -5.09942 6.29935 -0.560993 -4.51491e-07 -44.9138 0.576091 -1.92979 -2.81787 -0 -0 11.8421 2.54876e-06 -1.91802 20.5745 -0.6743 1.90692e-06 -70.4994 
88.607 86.803 17.086 -6.9544 -83.9276 33.1424 0 -0 0 13.2788 -18.5476 -13.6407 26.3341 -13.6282 -0.000121193 49.6571 -7.21386 -22.5902 -0 71.9562 -0 -18.0049 5.56233 -0.88187 -18.8426 12.173 -4.38197e-05 -44.266 -29.6906 23.9173 180 -77.7595 180 11.6602 -5.99197 -0.612329 2.69534 4.62807 -13.0482 3.39622 -4.35821 -46.761 -0 -0 21.433 2.9715e-06 -4.5318 7.29938 -0.577003 -2.3285e-06 -46.3779 0.573391 -1.76388 -2.07573 -0 -0 11.8607 -1.33141e-05 -2.03425 21.5952 -0.748993 -4.02446e-07 -71.3444 
87.172 86.566 17.036 -5.76421 -83.9803 31.8849 0 -0 0 13.6214 -18.8377 -13.7249 26.3189 -13.7298 -1.87064e-05 49.9514 -7.52911 -23.1941 -0 71.0743 -0 -18.1538 5.13416 -0.820825 -18.7263 12.1838 8.62731e-05 -43.6691 -29.7539 23.2802 180 -75.8399 -180 11.7417 -6.10674 -0.628491 1.85853 4.8984 -13.48 3.78726 -4.35498 -46.7455 -0 -0 20.1572 3.02207e-06 -4.06371 8.26588 -0.585198 1.52258e-06 -47.1431 0.530794 -1.56812 -1.26184 -0 -0 11.8919 7.7824e-06 -2.13072 22.5516 -0.817501 -4.90051e-06 -71.8921 
85.722 86.29 16.989 -4.11445 -84.0606 30.1633 0 -0 0 13.8768 -19.1098 -13.829 26.3122 -13.8316 -9.37967e-06 50.2247 -7.83425 -23.7615 -1.0294e-06 70.1609 -7.22963e-07 -18.2815 4.67959 -0.753406 -18.6281 12.1997 8.64518e-06 -43.0578 -29.7655 22.6474 180 -73.992 -180 11.7938 -6.23152 -0.644295 1.00921 5.14024 -13.8864 4.0492 -4.28201 -46.7618 -0 -0 19.3585 -4.55276e-06 -3.72646 9.10793 -0.5907 -5.71697e-07 -47.1738 0.436692 -1.36042 -0.439297 -0 -0 11.9553 2.44882e-06 -2.21409 23.4282 -0.880714 -6.23378e-07 -72.1582 
84.257 85.978 16.944 -2.16659 -84.1761 28.1226 0 -0 0 14.0593 -19.3511 -13.9247 26.3111 -13.9098 3.14141e-06 50.4812 -8.14207 -24.3112 -6.84368e-07 69.2417 -9.91253e-07 -18.4139 4.18346 -0.678377 -18.5488 12.1994 -0.000111534 -42.431 -29.7041 22.006 180 -72.2074 -180 11.8145 -6.36946 -0.659674 0.133025 5.35673 -14.2751 4.16622 -4.10408 -46.8166 -0 -0 19.1163 -5.65088e-06 -3.54133 9.71829 -0.598497 -1.10352e-06 -46.4423 0.307805 -1.1137 0.409907 -0 -0 12.0474 3.11948e-06 -2.3119 24.2441 -0.949711 4.24699e-06 -72.2353 
82.794 85.634 16.899 0.184136 -84.3167 25.7076 0 -0 0 14.1967 -19.5629 -14.0767 26.3133 -13.981 0.000170917 50.7139 -8.43271 -24.8218 -6.4864e-07 68.313 -9.55989e-07 -18.581 3.66937 -0.600487 -18.5151 12.207 -7.95937e-05 -41.7738 -29.6 21.3733 180 -70.5108 180 11.8066 -6.51348 -0.674211 -0.778826 5.55054 -14.6422 4.11911 -3.80627 -46.9932 -0 -0 19.487 2.37806e-06 -3.53476 10.0143 -0.61541 5.60215e-06 -44.9263 0.152304 -0.846507 1.20373 -0 -0 12.2017 -6.06865e-07 -2.44725 24.9896 -1.03431 4.07946e-07 -72.2129 
81.33 85.26 16.858 2.95508 -84.4721 22.876 0 -0 0 14.2783 -19.7462 -14.2387 26.325 -14.0299 -4.87577e-05 50.9265 -8.70569 -25.3074 -6.16239e-07 67.399 -9.24053e-07 -18.8076 3.11839 -0.516593 -18.5173 12.2059 -0.000138096 -41.0947 -29.4385 20.745 180 -68.9016 180 11.7747 -6.66745 -0.688313 -1.73077 5.7228 -14.9974 3.91919 -3.41302 -47.2831 -0 -0 20.5253 -2.93436e-06 -3.66366 9.8906 -0.630107 -4.45486e-06 -42.5922 -0.0318004 -0.561197 1.97721 -0 -0 12.4127 7.94266e-06 -2.63067 25.6998 -1.14151 -6.41014e-06 -72.1298 
79.871 84.863 16.819 6.13277 -84.6256 19.6536 0 -0 0 14.3338 -19.9141 -14.4377 26.3431 -14.0695 -2.11441e-05 51.1169 -8.93483 -25.7512 -0 66.4949 -0 -19.1148 2.54897 -0.429202 -18.57 12.2115 -2.90531e-05 -40.4002 -29.2381 20.1402 180 -67.4024 -180 11.723 -6.82664 -0.701681 -2.72898 5.87497 -15.344 3.59005 -2.9471 -47.7092 -0 -0 22.2089 -6.51023e-07 -3.90942 9.31043 -0.633396 1.67304e-08 -39.4668 -0.226394 -0.275995 2.68901 -0 -0 12.7033 -6.40243e-06 -2.8846 26.3822 -1.28271 5.91247e-06 -72.0343 
78.413 84.445 16.782 9.70483 -84.7503 16.0376 0 -0 0 14.3614 -20.084 -14.6462 26.3688 -14.0975 -3.33045e-05 51.2951 -9.10988 -26.1603 -0 65.6137 -0 -19.517 1.95814 -0.33679 -18.6637 12.2178 1.57887e-05 -39.7154 -28.9889 19.5732 180 -66.0275 180 11.6579 -6.99115 -0.71458 -3.77318 6.0065 -15.6874 3.16942 -2.45946 -48.2362 -0 -0 24.4849 4.36084e-06 -4.21801 8.2621 -0.607199 -5.57179e-06 -35.6579 -0.424805 -0.00849929 3.35479 -0 -0 13.0816 -8.03568e-06 -3.21336 27.0622 -1.46321 -1.61859e-05 -71.9106 
76.954 84.013 16.749 13.52 -84.8239 12.157 0 -0 0 14.374 -20.2749 -14.841 26.4009 -14.1199 -0.000139026 51.4631 -9.21042 -26.537 -8.45602e-07 64.765 -5.36275e-07 -20.0229 1.34945 -0.238283 -18.7935 12.2247 4.06218e-05 -39.0664 -28.695 19.0649 180 -64.7901 -180 11.5822 -7.15898 -0.727019 -4.86157 6.11639 -16.0339 2.70288 -1.99849 -48.8094 -0 -0 27.2331 -1.32196e-06 -4.54792 6.79036 -0.538891 -4.7654e-06 -31.3715 -0.611701 0.229798 3.98135 -0 -0 13.5602 1.77857e-05 -3.62009 27.754 -1.68761 -2.13369e-07 -71.6949 
75.491 83.573 16.716 17.2862 -84.8292 8.28879 0 -0 0 14.3877 -20.4988 -15.0034 26.4408 -14.1365 5.29164e-05 51.6286 -9.21728 -26.8846 -8.24633e-07 63.9511 -5.14804e-07 -20.6328 0.727995 -0.132501 -18.9544 12.2347 -6.39211e-05 -38.4859 -28.3502 18.6396 180 -63.7102 -180 11.4952 -7.32802 -0.738602 -5.99196 6.20363 -16.3852 2.23689 -1.59861 -49.3527 -0 -0 30.2839 -2.73763e-06 -4.87831 4.98827 -0.4252 1.7513e-06 -26.9457 -0.763885 0.435502 4.5676 -0 -0 14.1581 -5.74923e-06 -4.09892 28.4694 -1.95652 -1.79719e-05 -71.2832 
74.025 83.138 16.677 20.4716 -84.7499 4.96724 0 -0 0 14.4504 -20.7562 -15.1361 26.4819 -14.1506 -5.64896e-05 51.7948 -9.11724 -27.2143 -7.00903e-07 63.1786 -1.13976e-06 -21.3377 0.100399 -0.0189005 -19.1556 12.2453 6.37739e-05 -38.0031 -27.9536 18.3228 180 -62.8046 -180 11.3964 -7.49501 -0.748909 -7.16813 6.26778 -16.7411 1.82357 -1.26495 -49.7914 -0 -0 33.4296 -2.72096e-06 -5.21792 2.98583 -0.272604 -3.0023e-08 -22.8146 -0.8356 0.629003 5.08736 -0 -0 14.9112 2.45372e-05 -4.64842 29.1954 -2.27117 -1.69252e-06 -70.5558 
72.56 82.718 16.627 22.6744 -84.5974 2.60081 0 -0 0 14.5985 -21.0426 -15.2445 26.5235 -14.1602 -7.71142e-06 51.9632 -8.90103 -27.5336 -6.76779e-07 62.454 -1.11631e-06 -22.1214 -0.524794 0.102601 -19.4019 12.2602 0.000107805 -37.6398 -27.5024 18.1354 180 -62.0991 -180 11.2807 -7.65544 -0.757202 -8.3874 6.30865 -17.0963 1.50907 -1.00345 -50.0743 -0 -0 36.4887 2.43578e-07 -5.57049 0.895392 -0.0873007 5.64776e-07 -19.3108 -0.791904 0.830295 5.50617 -0 -0 15.8503 6.85887e-05 -5.2445 29.9097 -2.62058 5.87064e-05 -69.3695 
71.1 82.324 16.563 23.7385 -84.3959 1.3471 0 -0 0 14.8501 -21.3466 -15.3377 26.5652 -14.1673 -0.000112012 52.1391 -8.56017 -27.8525 -7.74653e-07 61.7775 -4.63409e-07 -22.9661 -1.13817 0.231187 -19.6935 12.2832 9.6473e-06 -37.4206 -26.9948 18.0962 180 -61.609 -180 11.1436 -7.80392 -0.762502 -9.64105 6.3256 -17.444 1.32579 -0.821753 -50.1677 -0 -0 39.3161 -7.59106e-07 -5.93151 -1.20288 0.125 -6.18336e-07 -16.5926 -0.614802 1.0557 5.79278 -0 -0 17.0014 -4.58192e-05 -5.83827 30.5865 -2.97836 3.11529e-05 -67.5883 
